<svg xmlns="http://www.w3.org/2000/svg" viewBox="0 0 4692 869" fill="currentColor">
  <g><path d="M 442 869 C 477 869 508 841 508 797 L 508 457 L 413 457 L 413 716 C 413 724 406 726 401 721 L 147 470 C 141 463 144 457 153 457 L 781 457 L 781 362 L 73 362 C 28 362 0 393 0 429 C 0 446 7 464 24 481 L 389 846 C 405 863 424 869 442 869 Z M 1026 853 C 1161 853 1272 742 1272 607 C 1272 472 1161 362 1026 362 L 876 362 L 876 457 L 1026 457 C 1107 457 1177 523 1177 607 C 1177 691 1108 758 1026 758 C 944 758 876 689 876 607 L 876 82 C 876 35 840 0 794 0 L 496 0 C 448 0 413 36 413 83 L 413 362 L 508 362 L 508 106 C 508 100 512 95 518 95 L 770 95 C 776 95 781 100 781 106 L 781 607 C 781 742 891 853 1026 853 Z" fill="currentColor" fill-rule="nonzero"></path></g>
  <g transform="translate(1414, 70)"><path d="M 2964 730 C 3027 730 3080 703 3109 661 L 3109 720 L 3213 720 L 3213 0 L 3109 0 L 3109 274 C 3080 235 3026 210 2963 210 C 2818 210 2707 327 2707 470 C 2707 613 2819 730 2964 730 Z M 2964 630 C 2879 630 2809 557 2809 470 C 2809 383 2879 310 2964 310 C 3049 310 3119 383 3119 470 C 3119 557 3049 630 2964 630 Z M 2269 428 C 2273 364 2336 303 2414 303 C 2492 303 2551 364 2555 428 L 2269 428 Z M 2423 730 C 2524 730 2612 672 2648 592 L 2565 564 C 2541 607 2485 637 2424 637 C 2336 637 2273 583 2269 510 L 2654 510 C 2674 342 2573 210 2423 210 C 2273 210 2167 317 2167 470 C 2167 623 2272 730 2423 730 Z M 2050 729 C 2081 729 2112 722 2132 711 L 2132 620 C 2108 632 2087 637 2073 637 C 2033 637 2013 613 2013 564 L 2013 302 L 2132 302 L 2132 220 L 2013 220 L 2013 120 L 1909 120 L 1909 220 L 1829 220 L 1829 302 L 1909 302 L 1909 568 C 1909 669 1961 729 2050 729 Z M 1337 720 L 1441 720 L 1441 436 C 1441 349 1490 300 1561 300 C 1632 300 1680 349 1680 436 L 1680 720 L 1784 720 L 1784 430 C 1784 289 1719 210 1593 210 C 1526 210 1466 237 1441 284 L 1441 220 L 1337 220 L 1337 720 Z M 998 630 C 913 630 843 557 843 470 C 843 383 913 310 998 310 C 1083 310 1153 383 1153 470 C 1153 557 1083 630 998 630 Z M 998 730 C 1061 730 1114 703 1143 661 L 1143 720 L 1247 720 L 1247 220 L 1143 220 L 1143 274 C 1114 235 1060 210 997 210 C 852 210 741 327 741 470 C 741 613 853 730 998 730 Z M 176 720 L 275 720 L 368 440 L 461 720 L 560 720 L 736 220 L 627 220 L 512 572 L 407 220 L 329 220 L 224 572 L 109 220 L 0 220 L 176 720 Z" fill="currentColor" fill-rule="nonzero"></path></g>
</svg>